<?xml version="1.0" encoding="utf-8"?>
<!-- Generator: Adobe Illustrator 25.4.0, SVG Export Plug-In . SVG Version: 6.00 Build 0)  -->
<svg version="1.1" id="Layer_1" xmlns="http://www.w3.org/2000/svg" xmlns:xlink="http://www.w3.org/1999/xlink" x="0px" y="0px"
	 viewBox="0 0 1152 288" style="enable-background:new 0 0 1152 288;" xml:space="preserve">
<style type="text/css">
	.st0{fill:#FFFFFF;}
</style>
<g>
	<rect x="440.4" y="91.3" class="st0" width="43.6" height="86.8"/>
	<circle class="st0" cx="565" cy="134.6" r="44.8"/>
	<polygon class="st0" points="498.4,187.3 490,187.3 513.9,82 522.3,82 	"/>
	<path class="st0" d="M647.5,98.3h48v11.8h-35.7V132h32.1v11.7h-32.1v21.8h35.6v11.8h-48L647.5,98.3z"/>
	<path class="st0" d="M721.5,148.7L702.1,121h14.1l12.5,18.3h0.3l11.9-18.3h14.6l-19.6,27.7l19.8,28.6h-14.3l-12.6-19h-0.3l-12.2,19
		h-14.3L721.5,148.7z"/>
	<path class="st0" d="M780,177.8c-2-0.7-3.9-1.8-5.4-3.3c-3.2-3.2-4.7-7.6-4.7-13.1v-29.7H760V121h9.8v-15.8H782V121h13.7v10.7H782
		v27.1c0,3.1,0.6,5.3,1.8,6.6c1.1,1.5,3,2.3,5.7,2.3c1.1,0,2.2-0.1,3.3-0.5c1.1-0.4,2.1-0.9,3.1-1.6v11.8c-2.8,1.2-5.8,1.8-8.9,1.7
		C784.6,179,782.2,178.6,780,177.8z"/>
	<path class="st0" d="M814.1,175.2c-4.3-2.5-7.9-6.2-10.2-10.6c-2.5-4.7-3.8-9.9-3.7-15.3c0-5.2,1.2-10.3,3.6-14.9
		c2.3-4.5,5.7-8.3,10-11c4.4-2.7,9.4-4.2,14.6-4.1c5.1-0.1,10.2,1.2,14.7,3.8c4.1,2.4,7.4,6,9.5,10.3c2.2,4.6,3.3,9.6,3.2,14.7
		c0,1.3-0.1,2.6-0.3,3.9h-43.1c0.4,5.2,2.3,9.2,5.6,12.1c3.1,2.8,7.2,4.3,11.4,4.2c3.2,0.1,6.3-0.7,9-2.4c2.6-1.6,4.7-3.8,6.1-6.4
		l10.3,4.9c-2.5,4.5-6,8.2-10.4,10.9c-4.6,2.8-9.9,4.1-15.3,4C823.8,179.1,818.6,177.8,814.1,175.2z M843.4,142.5
		c-0.2-2.1-0.8-4.1-1.9-5.9c-1.2-2-2.9-3.7-5-4.9c-2.5-1.4-5.3-2.1-8.2-2c-3.6-0.1-7.1,1.1-9.9,3.5c-2.8,2.5-4.7,5.7-5.6,9.3
		L843.4,142.5z"/>
	<path class="st0" d="M865.1,121h11.6v7.4h0.5c1.8-2.8,4.3-5.1,7.2-6.6c3.1-1.7,6.6-2.6,10.2-2.6c6.8,0,12,2,15.6,6
		c3.6,4,5.3,9.5,5.3,16.4v35.6h-12.1v-33.9c0-4.4-1.1-7.6-3.2-9.7c-2.2-2.1-5.2-3.1-9-3.1c-2.6,0-5.1,0.8-7.3,2.3
		c-2.2,1.5-3.9,3.6-5,6c-1.2,2.5-1.8,5.3-1.8,8.1v30.4h-12.1V121z"/>
	<path class="st0" d="M937.9,175.2c-4.1-2.6-7.5-6.3-9.8-10.6c-4.8-9.7-4.8-21.1,0-30.8c2.2-4.4,5.6-8,9.8-10.6
		c4.1-2.6,8.9-3.9,13.8-3.9c3.7-0.1,7.4,0.9,10.7,2.7c2.9,1.5,5.4,3.8,7.2,6.5h0.5l-0.5-7.9V98.3h12.1v78.9H970V170h-0.5
		c-1.8,2.7-4.3,4.9-7.2,6.4c-3.3,1.8-7,2.7-10.7,2.6C946.8,179.1,942,177.7,937.9,175.2z M961.6,165.6c2.6-1.6,4.7-3.9,6.1-6.6
		c1.6-3,2.4-6.4,2.3-9.8c0.1-3.4-0.7-6.8-2.3-9.8c-1.4-2.7-3.5-5-6.1-6.6c-2.5-1.5-5.3-2.3-8.2-2.3c-2.9,0-5.8,0.8-8.3,2.3
		c-2.6,1.6-4.7,3.9-6.2,6.6c-1.6,3-2.4,6.4-2.3,9.8c-0.1,3.4,0.8,6.8,2.4,9.8c1.4,2.7,3.6,5,6.2,6.6c2.5,1.5,5.4,2.3,8.3,2.3
		C956.3,167.9,959.2,167.1,961.6,165.6z"/>
	<path class="st0" d="M1004.9,175.2c-4.3-2.5-7.9-6.2-10.3-10.6c-2.5-4.7-3.8-10-3.7-15.3c0-5.2,1.2-10.3,3.6-14.9
		c2.3-4.5,5.7-8.3,10-11c4.4-2.7,9.4-4.2,14.5-4.1c5.2-0.1,10.3,1.2,14.7,3.8c4.1,2.4,7.4,6,9.5,10.3c2.2,4.6,3.3,9.6,3.2,14.7
		c0,1.3-0.1,2.6-0.3,3.9h-43.1c0.4,5.2,2.3,9.2,5.6,12.1c3.1,2.8,7.2,4.3,11.4,4.2c3.2,0.1,6.3-0.7,9-2.4c2.6-1.6,4.7-3.8,6.1-6.4
		l10.2,4.9c-2.5,4.5-6,8.2-10.4,10.9C1025.8,180.3,1014.4,180.3,1004.9,175.2L1004.9,175.2z M1034.2,142.5c-0.2-2.1-0.8-4.1-1.9-5.9
		c-1.2-2.1-2.9-3.7-5-4.9c-2.5-1.4-5.4-2.1-8.2-2c-3.6-0.1-7.1,1.1-9.9,3.5c-2.8,2.5-4.7,5.7-5.6,9.3L1034.2,142.5z"/>
	<path class="st0" d="M1066.2,175.2c-4.1-2.6-7.5-6.3-9.8-10.6c-4.8-9.7-4.8-21.1,0-30.8c2.2-4.4,5.6-8,9.8-10.6
		c4.1-2.6,8.9-3.9,13.8-3.9c3.7-0.1,7.4,0.9,10.7,2.7c2.9,1.5,5.4,3.8,7.2,6.5h0.6l-0.6-7.9V98.3h12.2v78.9h-11.6V170h-0.6
		c-1.8,2.7-4.3,4.9-7.2,6.4c-3.3,1.8-7,2.7-10.7,2.6C1075.1,179.1,1070.3,177.7,1066.2,175.2z M1089.9,165.6
		c2.6-1.6,4.7-3.9,6.1-6.6c1.6-3,2.4-6.4,2.3-9.8c0.1-3.4-0.7-6.8-2.3-9.8c-1.4-2.7-3.5-5-6.1-6.6c-2.5-1.5-5.3-2.3-8.2-2.3
		c-2.9,0-5.8,0.8-8.3,2.3c-2.6,1.6-4.8,3.9-6.2,6.6c-1.6,3-2.4,6.4-2.3,9.8c-0.1,3.4,0.7,6.8,2.3,9.8c1.4,2.7,3.6,5,6.2,6.6
		c2.5,1.5,5.3,2.3,8.3,2.3C1084.6,167.9,1087.5,167.1,1089.9,165.6L1089.9,165.6z"/>
	<path class="st0" d="M42,133.9c0-25.2,21.1-45.7,46.3-45.7c11.7-0.2,23,4.3,31.3,12.6l-8.8,8.8c-6-5.8-14.1-9-22.4-8.9
		c-18.3,0-32.7,14.8-32.7,33.2s14.3,33.1,32.7,33.1c11.9,0,18.7-4.8,23-9.1c3.6-3.6,5.9-8.7,6.8-15.7H88.3v-12.5h42
		c0.5,2.6,0.7,5.2,0.7,7.8c0,9.4-2.6,20.9-10.8,29.2c-8,8.3-18.3,12.7-31.8,12.7C63.1,179.5,42,159.1,42,133.9"/>
	<path class="st0" d="M164.9,120.8c-16.2,0-29.5,12.4-29.5,29.4s13.2,29.4,29.5,29.4s29.5-12.5,29.5-29.4S181.1,120.8,164.9,120.8
		L164.9,120.8z M164.9,168c-8.9,0-16.6-7.3-16.6-17.8s7.7-17.8,16.6-17.8s16.6,7.2,16.6,17.8S173.7,168,164.9,168L164.9,168z"/>
	<path class="st0" d="M229.2,120.8c-16.2,0-29.5,12.4-29.5,29.4s13.2,29.4,29.5,29.4s29.5-12.5,29.5-29.4S245.4,120.8,229.2,120.8
		L229.2,120.8z M229.2,168c-8.9,0-16.6-7.3-16.6-17.8s7.7-17.8,16.6-17.8s16.6,7.2,16.6,17.8S238.1,168,229.2,168L229.2,168z"/>
	<rect x="329.2" y="91.4" class="st0" width="12.9" height="86.4"/>
	<rect x="329.2" y="91.4" class="st0" width="12.9" height="86.4"/>
	<path class="st0" d="M377.5,168c-6.6,0-11.2-3-14.2-8.9l39.3-16.3l-1.3-3.3c-2.5-6.6-9.9-18.7-25.1-18.7s-27.7,11.9-27.7,29.4
		c0,16.5,12.5,29.4,29.1,29.4c9.8,0,19-4.9,24.4-13.1l-10-6.7C388.6,164.7,384.1,168,377.5,168L377.5,168z M376.5,132.1
		c5.1,0,9.5,2.6,10.9,6.2l-26.3,10.9C360.8,137.9,370,132.1,376.5,132.1L376.5,132.1z"/>
	<path class="st0" d="M308.1,122.6v4.8h-0.4c-2.9-3.5-8.5-6.6-15.5-6.6c-14.7,0-28.1,12.9-28.1,29.5s13.5,29.2,28.1,29.2
		c7,0,12.6-3.1,15.5-6.7h0.4v4.2c0,11.2-6,17.2-15.6,17.2c-7.9,0-12.8-5.7-14.8-10.4l-11.2,4.7c4.3,10.6,14.6,17.5,26.1,17.4
		c15.1,0,27.9-8.9,27.9-30.6v-52.8H308.1z M293.3,168c-8.9,0-16.4-7.5-16.4-17.7s7.5-17.9,16.4-17.9S309,140,309,150.3
		S302.1,168,293.3,168L293.3,168z"/>
</g>
</svg>
